<svg width="900" height="700" viewBox="0 0 900 700" fill="none" xmlns="http://www.w3.org/2000/svg">
  <defs>
    <linearGradient id="bg" x1="0" y1="0" x2="1" y2="1">
      <stop offset="0%" stop-color="#6366F1"/>
      <stop offset="100%" stop-color="#A855F7"/>
    </linearGradient>
    <linearGradient id="card" x1="0" y1="0" x2="1" y2="1">
      <stop offset="0%" stop-color="#FFFFFF" stop-opacity="0.95"/>
      <stop offset="100%" stop-color="#EEF2FF" stop-opacity="0.95"/>
    </linearGradient>
  </defs>
  <rect x="40" y="40" width="820" height="620" rx="28" fill="url(#bg)"/>
  <circle cx="210" cy="160" r="90" fill="#8B5CF6" opacity="0.6"/>
  <circle cx="690" cy="210" r="120" fill="#22C55E" opacity="0.35"/>
  <circle cx="620" cy="520" r="150" fill="#F97316" opacity="0.35"/>

  <rect x="150" y="170" width="540" height="90" rx="18" fill="url(#card)"/>
  <rect x="180" y="200" width="120" height="10" rx="5" fill="#CBD5F8"/>
  <rect x="180" y="220" width="240" height="10" rx="5" fill="#E2E8F0"/>
  <rect x="470" y="195" width="170" height="40" rx="12" fill="#6366F1" opacity="0.9"/>

  <rect x="150" y="290" width="600" height="130" rx="18" fill="url(#card)"/>
  <rect x="180" y="320" width="320" height="12" rx="6" fill="#CBD5F8"/>
  <rect x="180" y="345" width="420" height="10" rx="5" fill="#E2E8F0"/>
  <rect x="180" y="365" width="380" height="10" rx="5" fill="#E2E8F0"/>

  <rect x="200" y="450" width="480" height="90" rx="18" fill="url(#card)"/>
  <rect x="230" y="480" width="240" height="10" rx="5" fill="#CBD5F8"/>
  <rect x="230" y="500" width="320" height="10" rx="5" fill="#E2E8F0"/>
</svg>
