<svg width="900" height="600" viewBox="0 0 900 600" fill="none" xmlns="http://www.w3.org/2000/svg">
  <defs>
    <linearGradient id="bg2" x1="0" y1="0" x2="1" y2="1">
      <stop offset="0%" stop-color="#EEF2FF"/>
      <stop offset="100%" stop-color="#FDF2FF"/>
    </linearGradient>
  </defs>
  <rect x="30" y="30" width="840" height="540" rx="24" fill="url(#bg2)"/>

  <rect x="70" y="70" width="760" height="120" rx="16" fill="#FFFFFF"/>
  <circle cx="120" cy="130" r="28" fill="#6366F1"/>
  <rect x="160" y="110" width="200" height="12" rx="6" fill="#C7D2FE"/>
  <rect x="160" y="135" width="360" height="10" rx="5" fill="#E2E8F0"/>
  <rect x="160" y="155" width="280" height="10" rx="5" fill="#E2E8F0"/>

  <rect x="70" y="220" width="760" height="150" rx="16" fill="#FFFFFF"/>
  <circle cx="120" cy="290" r="28" fill="#8B5CF6"/>
  <rect x="160" y="260" width="220" height="12" rx="6" fill="#C7D2FE"/>
  <rect x="160" y="285" width="420" height="10" rx="5" fill="#E2E8F0"/>
  <rect x="160" y="305" width="360" height="10" rx="5" fill="#E2E8F0"/>

  <rect x="70" y="400" width="760" height="130" rx="16" fill="#FFFFFF"/>
  <circle cx="120" cy="460" r="28" fill="#22C55E"/>
  <rect x="160" y="430" width="200" height="12" rx="6" fill="#C7D2FE"/>
  <rect x="160" y="455" width="320" height="10" rx="5" fill="#E2E8F0"/>
  <rect x="160" y="475" width="280" height="10" rx="5" fill="#E2E8F0"/>
</svg>
